<svg width="35" height="35" viewBox="0 0 35 35" fill="none" xmlns="http://www.w3.org/2000/svg">
<path d="M22.9478 7.47499C24.6978 8.42874 26.0891 9.81124 27.1303 11.605C28.1628 13.3987 28.6616 15.3062 28.6178 17.2925H28.6266C28.6091 18.0362 27.9878 18.6225 27.2353 18.605C26.4916 18.5875 25.8966 17.9662 25.9228 17.2225C25.9578 15.735 25.5816 14.3262 24.7941 12.9525C24.0066 11.5787 22.9653 10.555 21.6616 9.83749C21.0053 9.47874 20.7603 8.66499 21.1191 7.99999C21.4866 7.34374 22.3003 7.09874 22.9653 7.45749L22.9478 7.47499ZM4.00408 21.755L6.47158 27.32V31.4325L23.8316 23.75L20.8478 21.1687L18.2928 15.42L18.1441 15.0962C16.2891 11.3425 11.8003 9.72374 7.96783 11.4387C6.06908 12.2787 4.58158 13.8362 3.83783 15.77C3.10283 17.7037 3.15533 19.8562 4.00408 21.755ZM6.86532 8.95374H6.87407C12.0366 6.65249 18.0916 8.83999 20.5941 13.9062L20.7778 14.2825L23.0966 19.4975L26.1591 22.1487C26.3253 22.2887 26.4653 22.455 26.6403 22.735L26.7453 22.945V22.9537C26.9903 23.4962 27.0078 24.1175 26.7978 24.6862C26.5791 25.2375 26.1503 25.6925 25.5991 25.9375L6.95283 34.18C6.26158 34.4862 5.44782 34.425 4.80907 34.0137C4.17032 33.5937 3.78533 32.885 3.78533 32.1237V27.8887L1.54532 22.8487H1.53658C0.399075 20.3025 0.320325 17.3975 1.32657 14.79C2.32407 12.1912 4.31907 10.0825 6.86532 8.95374ZM23.3853 0.973742C27.1566 3.02999 29.9741 5.67249 31.8378 8.89249C33.7016 12.1212 34.5766 15.8837 34.4716 20.18C34.4628 20.9237 33.8416 21.5187 33.0891 21.51C32.3366 21.4925 31.7503 20.8712 31.7591 20.1187C31.8553 16.3037 31.0941 13.0312 29.4841 10.2575C27.8828 7.48374 25.4241 5.19124 22.0728 3.36249H22.0816C21.7753 3.18749 21.5391 2.89874 21.4341 2.55749C21.3291 2.20749 21.3728 1.83999 21.5478 1.52499C21.9066 0.859992 22.7378 0.614992 23.3853 0.973742ZM13.5766 33.1562L20.0078 30.435C20.2528 32.0625 19.3691 33.6375 17.8553 34.285C16.3416 34.9237 14.5828 34.46 13.5766 33.1562Z" fill="white"/>
</svg>
