<svg width="102" height="13" viewBox="0 0 102 13" fill="none" xmlns="http://www.w3.org/2000/svg">
<path d="M1 5.75C0.585786 5.75 0.25 6.08579 0.25 6.5C0.25 6.91421 0.585786 7.25 1 7.25V5.75ZM101.53 7.03033C101.823 6.73744 101.823 6.26256 101.53 5.96967L96.7574 1.1967C96.4645 0.903806 95.9896 0.903806 95.6967 1.1967C95.4038 1.48959 95.4038 1.96447 95.6967 2.25736L99.9393 6.5L95.6967 10.7426C95.4038 11.0355 95.4038 11.5104 95.6967 11.8033C95.9896 12.0962 96.4645 12.0962 96.7574 11.8033L101.53 7.03033ZM1 7.25H3.5V5.75H1V7.25ZM8.5 7.25H13.5V5.75H8.5V7.25ZM18.5 7.25H23.5V5.75H18.5V7.25ZM28.5 7.25H33.5V5.75H28.5V7.25ZM38.5 7.25H43.5V5.75H38.5V7.25ZM48.5 7.25H53.5V5.75H48.5V7.25ZM58.5 7.25H63.5V5.75H58.5V7.25ZM68.5 7.25H73.5V5.75H68.5V7.25ZM78.5 7.25H83.5V5.75H78.5V7.25ZM88.5 7.25H93.5V5.75H88.5V7.25ZM98.5 7.25H101V5.75H98.5V7.25Z" fill="#D0D1D2"/>
</svg>
