<svg width="12" height="12" viewBox="0 0 12 12" fill="none" xmlns="http://www.w3.org/2000/svg">
<path fill-rule="evenodd" clip-rule="evenodd" d="M7 1.5C7 1.22386 7.22386 1 7.5 1H9.5C9.89783 1 10.2794 1.15804 10.5607 1.43934C10.842 1.72064 11 2.10217 11 2.5V9.5C11 9.89783 10.842 10.2794 10.5607 10.5607C10.2794 10.842 9.89783 11 9.5 11H7.5C7.22386 11 7 10.7761 7 10.5C7 10.2239 7.22386 10 7.5 10H9.5C9.63261 10 9.75978 9.94732 9.85355 9.85355C9.94732 9.75978 10 9.63261 10 9.5V2.5C10 2.36739 9.94732 2.24021 9.85355 2.14645C9.75979 2.05268 9.63261 2 9.5 2H7.5C7.22386 2 7 1.77614 7 1.5Z" fill="#919EAB"/>
<path fill-rule="evenodd" clip-rule="evenodd" d="M4.64645 3.14645C4.84171 2.95118 5.15829 2.95118 5.35355 3.14645L7.85355 5.64645C8.04882 5.84171 8.04882 6.15829 7.85355 6.35355L5.35355 8.85355C5.15829 9.04882 4.84171 9.04882 4.64645 8.85355C4.45118 8.65829 4.45118 8.34171 4.64645 8.14645L6.79289 6L4.64645 3.85355C4.45118 3.65829 4.45118 3.34171 4.64645 3.14645Z" fill="#919EAB"/>
<path fill-rule="evenodd" clip-rule="evenodd" d="M1 6C1 5.72386 1.22386 5.5 1.5 5.5H7.5C7.77614 5.5 8 5.72386 8 6C8 6.27614 7.77614 6.5 7.5 6.5H1.5C1.22386 6.5 1 6.27614 1 6Z" fill="#919EAB"/>
</svg>
