<svg width="16" height="16" viewBox="0 0 16 16" fill="none" xmlns="http://www.w3.org/2000/svg">
<path fill-rule="evenodd" clip-rule="evenodd" d="M2 6C2 4.11467 2 3.17133 2.586 2.586C3.17133 2 4.11467 2 6 2H10.2287C10.774 2 11.046 2 11.2913 2.10133C11.536 2.20267 11.7287 2.396 12.1147 2.78133L13.2187 3.88533C13.6047 4.27067 13.7967 4.464 13.8987 4.70867C14 4.954 14 5.226 14 5.77133V10C14 11.8853 14 12.8287 13.414 13.414C12.9867 13.842 12.3687 13.9573 11.3333 13.9887V11.9587C11.3333 11.5227 11.3333 11.1313 11.2907 10.814C11.244 10.4673 11.136 10.1127 10.8453 9.82133C10.554 9.53067 10.1987 9.42267 9.85267 9.376C9.53533 9.33333 9.144 9.33333 8.708 9.33333H6.62533C6.18933 9.33333 5.798 9.33333 5.48067 9.376C5.134 9.42267 4.77933 9.53067 4.488 9.82133C4.19733 10.1127 4.08933 10.468 4.04267 10.814C4 11.1313 4 11.5227 4 11.9587V13.9493C3.35 13.8853 2.91267 13.7407 2.586 13.414C2 12.8287 2 11.8853 2 10V6ZM10 12V14H6C5.76333 14 5.54133 14 5.33333 13.9987V12C5.33333 11.51 5.33467 11.2093 5.364 10.9913C5.39 10.8007 5.426 10.7687 5.43067 10.7647C5.43533 10.76 5.46667 10.7233 5.658 10.6973C5.876 10.668 6.17667 10.6667 6.66667 10.6667H8.66667C9.15667 10.6667 9.45733 10.668 9.67533 10.6973C9.86667 10.7233 9.898 10.7593 9.902 10.764H9.90267C9.90733 10.7687 9.94333 10.8007 9.96933 10.9913C9.99867 11.2093 10 11.51 10 12ZM4.66667 4.66667C4.48986 4.66667 4.32029 4.7369 4.19526 4.86193C4.07024 4.98695 4 5.15652 4 5.33333C4 5.51014 4.07024 5.67971 4.19526 5.80474C4.32029 5.92976 4.48986 6 4.66667 6H8C8.17681 6 8.34638 5.92976 8.4714 5.80474C8.59643 5.67971 8.66667 5.51014 8.66667 5.33333C8.66667 5.15652 8.59643 4.98695 8.4714 4.86193C8.34638 4.7369 8.17681 4.66667 8 4.66667H4.66667Z" fill="white"/>
</svg>
