<svg width="13" height="15" viewBox="0 0 13 15" fill="none" xmlns="http://www.w3.org/2000/svg">
<path fill-rule="evenodd" clip-rule="evenodd" d="M6.2854 0.833344C5.54273 0.833344 4.86607 1.23334 3.51407 2.03468L3.05673 2.30534C1.7034 3.10668 1.02807 3.50734 0.656734 4.16668C0.2854 4.82668 0.2854 5.62668 0.2854 7.22934V7.77068C0.2854 9.37268 0.2854 10.174 0.656734 10.8333C1.02807 11.4933 1.7034 11.8933 3.05673 12.694L3.51407 12.9653C4.86607 13.766 5.54273 14.1667 6.2854 14.1667C7.02807 14.1667 7.70407 13.7667 9.05673 12.9653L9.51407 12.694C10.8661 11.894 11.5427 11.4927 11.9141 10.8333C12.2854 10.1733 12.2854 9.37334 12.2854 7.77068V7.22934C12.2854 5.62734 12.2854 4.82601 11.9141 4.16668C11.5427 3.50668 10.8661 3.10668 9.51407 2.30534L9.05673 2.03468C7.7034 1.23401 7.02807 0.833344 6.2854 0.833344ZM3.7854 7.50001C3.7854 6.83697 4.04879 6.20108 4.51763 5.73224C4.98647 5.2634 5.62236 5.00001 6.2854 5.00001C6.94844 5.00001 7.58433 5.2634 8.05317 5.73224C8.52201 6.20108 8.7854 6.83697 8.7854 7.50001C8.7854 8.16305 8.52201 8.79894 8.05317 9.26778C7.58433 9.73662 6.94844 10 6.2854 10C5.62236 10 4.98647 9.73662 4.51763 9.26778C4.04879 8.79894 3.7854 8.16305 3.7854 7.50001Z" fill="#F55B3D"/>
</svg>
