<svg width="65" height="13" viewBox="0 0 65 13" fill="none" xmlns="http://www.w3.org/2000/svg">
<path d="M1 5.75C0.585786 5.75 0.25 6.08579 0.25 6.5C0.25 6.91421 0.585786 7.25 1 7.25V5.75ZM64.5303 7.03033C64.8232 6.73744 64.8232 6.26256 64.5303 5.96967L59.7574 1.1967C59.4645 0.903806 58.9896 0.903806 58.6967 1.1967C58.4038 1.48959 58.4038 1.96447 58.6967 2.25736L62.9393 6.5L58.6967 10.7426C58.4038 11.0355 58.4038 11.5104 58.6967 11.8033C58.9896 12.0962 59.4645 12.0962 59.7574 11.8033L64.5303 7.03033ZM1 7.25H3.625V5.75H1V7.25ZM8.875 7.25H14.125V5.75H8.875V7.25ZM19.375 7.25H24.625V5.75H19.375V7.25ZM29.875 7.25H35.125V5.75H29.875V7.25ZM40.375 7.25H45.625V5.75H40.375V7.25ZM50.875 7.25H56.125V5.75H50.875V7.25ZM61.375 7.25H64V5.75H61.375V7.25Z" fill="#D0D1D2"/>
</svg>
