<svg width="38" height="32" viewBox="0 0 38 32" fill="none" xmlns="http://www.w3.org/2000/svg">
<path d="M37.3509 0.670732C37.1262 0.745626 36.9265 0.845486 36.7018 0.92038C26.7658 5.01462 16.8048 9.10885 6.86884 13.2031C4.72186 14.0769 2.57488 14.9756 0.452873 15.8993C0.278119 15.9742 0.0783996 16.1739 0.0284699 16.3736C0.00350503 16.4735 0.253154 16.6732 0.427908 16.7731C0.627626 16.8979 0.85231 16.9728 1.07699 17.0477C4.64697 18.4956 8.19198 19.9436 11.7619 21.3416C11.8119 21.3666 11.8618 21.3916 11.8868 21.3916L12.7356 30.6036C12.7356 30.7284 12.7855 30.8532 12.8354 30.9781C13.0102 31.3525 13.5095 31.4774 13.859 31.2027C15.8811 29.5301 17.8783 27.8575 19.8506 26.1349C20.2999 25.7354 20.6494 25.7354 21.1737 26.0101C23.9698 27.5329 26.7908 29.0058 29.6118 30.5037C31.2845 31.3775 31.2845 31.3775 31.7089 29.5301C33.4065 21.9408 35.0791 14.3515 36.7767 6.73719C37.1762 4.88979 37.6006 3.04239 38 1.19499C38 0.770592 37.7753 0.545907 37.3509 0.670732ZM30.7352 7.88557C26.2416 12.8286 21.7479 17.7966 17.2542 22.7397C17.0046 23.0143 16.7799 23.3388 16.6051 23.6634C15.7563 25.2861 14.9075 26.9338 14.0587 28.5565L13.4096 21.5164C13.4596 21.3916 13.5594 21.2917 13.6343 21.2168C19.7757 16.1489 25.967 11.106 32.1333 6.03817C32.1832 5.98825 32.2331 5.96328 32.2831 5.93832C32.308 5.96328 32.358 5.98825 32.3829 6.01321C31.8587 6.63733 31.3094 7.26145 30.7352 7.88557Z" fill="url(#paint0_linear_5_3260)"/>
<defs>
<linearGradient id="paint0_linear_5_3260" x1="-0.121338" y1="15.9931" x2="45.7671" y2="15.9992" gradientUnits="userSpaceOnUse">
<stop stop-color="#F14141"/>
<stop offset="0.8101" stop-color="#FC8935"/>
</linearGradient>
</defs>
</svg>
