<svg width="10" height="11" viewBox="0 0 10 11" fill="none" xmlns="http://www.w3.org/2000/svg">
<path d="M9.5 2.50002H7V1.66502C6.98827 1.34493 6.8501 1.04255 6.61579 0.824164C6.38147 0.605781 6.07012 0.489214 5.75 0.500018H4.25C3.92988 0.489214 3.61853 0.605781 3.38421 0.824164C3.1499 1.04255 3.01173 1.34493 3 1.66502V2.50002H0.5C0.367392 2.50002 0.240215 2.5527 0.146447 2.64646C0.0526784 2.74023 0 2.86741 0 3.00002C0 3.13263 0.0526784 3.2598 0.146447 3.35357C0.240215 3.44734 0.367392 3.50002 0.5 3.50002H1V9.00002C1 9.39784 1.15804 9.77937 1.43934 10.0607C1.72064 10.342 2.10218 10.5 2.5 10.5H7.5C7.89782 10.5 8.27936 10.342 8.56066 10.0607C8.84196 9.77937 9 9.39784 9 9.00002V3.50002H9.5C9.63261 3.50002 9.75979 3.44734 9.85355 3.35357C9.94732 3.2598 10 3.13263 10 3.00002C10 2.86741 9.94732 2.74023 9.85355 2.64646C9.75979 2.5527 9.63261 2.50002 9.5 2.50002ZM4 7.50002C4 7.63263 3.94732 7.7598 3.85355 7.85357C3.75979 7.94734 3.63261 8.00002 3.5 8.00002C3.36739 8.00002 3.24021 7.94734 3.14645 7.85357C3.05268 7.7598 3 7.63263 3 7.50002V5.50002C3 5.36741 3.05268 5.24023 3.14645 5.14646C3.24021 5.0527 3.36739 5.00002 3.5 5.00002C3.63261 5.00002 3.75979 5.0527 3.85355 5.14646C3.94732 5.24023 4 5.36741 4 5.50002V7.50002ZM4 1.66502C4 1.58502 4.105 1.50002 4.25 1.50002H5.75C5.895 1.50002 6 1.58502 6 1.66502V2.50002H4V1.66502ZM7 7.50002C7 7.63263 6.94732 7.7598 6.85355 7.85357C6.75979 7.94734 6.63261 8.00002 6.5 8.00002C6.36739 8.00002 6.24021 7.94734 6.14645 7.85357C6.05268 7.7598 6 7.63263 6 7.50002V5.50002C6 5.36741 6.05268 5.24023 6.14645 5.14646C6.24021 5.0527 6.36739 5.00002 6.5 5.00002C6.63261 5.00002 6.75979 5.0527 6.85355 5.14646C6.94732 5.24023 7 5.36741 7 5.50002V7.50002Z" fill="#919EAB"/>
</svg>
