<?xml version="1.0" encoding="utf-8"?>
<!-- Generator: Adobe Illustrator 27.4.0, SVG Export Plug-In . SVG Version: 6.00 Build 0)  -->
<svg version="1.1" id="Слой_1" xmlns="http://www.w3.org/2000/svg" xmlns:xlink="http://www.w3.org/1999/xlink" x="0px" y="0px"
	 viewBox="0 0 2000 558" style="enable-background:new 0 0 2000 558;" xml:space="preserve">
<style type="text/css">
	.st0{fill:url(#SVGID_1_);}
	.st1{fill:url(#SVGID_00000086685329722372291560000003816995319720073653_);}
</style>
<g>
	<linearGradient id="SVGID_1_" gradientUnits="userSpaceOnUse" x1="-4.0832" y1="279" x2="1994.1898" y2="279">
		<stop  offset="0" style="stop-color:#F14141"/>
		<stop  offset="0.8101" style="stop-color:#FC8935"/>
	</linearGradient>
	<path class="st0" d="M1809.1,110.7c28.8,15.7,51.8,38.4,68.9,68c17.1,29.6,25.3,61,24.5,93.8h0.2c-0.3,12.2-10.5,22-22.9,21.7
		c-12.2-0.3-22-10.5-21.7-22.8c0.6-24.5-5.6-47.7-18.6-70.3c-13-22.6-30.2-39.5-51.6-51.3c-10.9-5.9-14.9-19.4-9-30.2
		c6-10.8,19.5-14.9,30.4-9L1809.1,110.7z M1496.9,345.9l40.7,91.7v67.7l286-126.6l-49.1-42.6l-42.2-94.7l-2.5-5.4
		c-30.5-61.8-104.6-88.5-167.7-60.3c-31.3,13.8-55.8,39.5-68,71.4C1482,279.2,1482.9,314.6,1496.9,345.9z M1544,135.1h0.2
		c85.1-38,184.8-1.9,226,81.6l3,6.2l38.2,86l50.5,43.7c2.8,2.3,5.1,5.1,7.9,9.6l1.7,3.4v0.2c4,9,4.3,19.2,0.8,28.5
		c-3.6,9.1-10.7,16.6-19.7,20.6l-307.2,135.9c-11.5,5.1-24.8,4-35.3-2.8c-10.6-7-16.9-18.6-16.9-31.1v-69.7l-36.9-83.1h-0.2
		c-18.7-42-20-89.8-3.5-132.8C1469.2,188.4,1502,153.7,1544,135.1z M1816.2,3.5c62.1,34,108.6,77.5,139.3,130.4
		c30.7,53.1,45.1,115.1,43.4,185.9c-0.2,12.2-10.4,22-22.8,21.9c-12.4-0.3-22-10.6-21.9-22.9c1.5-62.9-11-116.8-37.5-162.5
		c-26.3-45.7-66.9-83.5-122.1-113.6h0.1c-5.1-2.8-9-7.6-10.7-13.3c-1.7-5.8-1-11.8,1.9-17.1c5.9-10.7,19.5-14.7,30.3-8.8H1816.2z
		 M1654.6,533.9l106-44.9c4,26.8-10.5,52.8-35.5,63.5C1700.2,563,1671.2,555.4,1654.6,533.9z"/>
	
		<linearGradient id="SVGID_00000111901401891696771600000001693018608780074369_" gradientUnits="userSpaceOnUse" x1="-4.0832" y1="274.5916" x2="1994.1898" y2="274.5916">
		<stop  offset="0" style="stop-color:#F14141"/>
		<stop  offset="0.8101" style="stop-color:#FC8935"/>
	</linearGradient>
	<path style="fill:url(#SVGID_00000111901401891696771600000001693018608780074369_);" d="M512.4,181.2l-76,188l-26,64.3l-11.3,28
		h-54.3l37.3-92.3l-82.8-188h54.3l54.5,123.8l50-123.8H512.4z M637.7,112.1l102.9,275.1h-57l-24.2-64.7l0,0H559l0,0l-24.2,64.7h-57
		l102.9-275.1l4.9-13.2h47.1L637.7,112.1z M609.2,188.3l-30.8,82.3l0,0H640l0,0L609.2,188.3z M1244.8,277.2v-46.8h58.2V181h-58.2
		v-68.1l-54.3,20.2v144c0,31.5,12.8,60.1,33.4,80.7s49.2,33.4,80.7,33.4V337C1271.6,337,1244.8,310.2,1244.8,277.2z M755.9,387.2
		h54.3V87.7l-54.3,20.2V387.2z M1054.8,290.6v96.5h54.3v-96.5c0-33,26.8-59.8,59.8-59.8v-54.3c-31.5,0-60.1,12.8-80.7,33.4
		C1067.6,230.6,1054.8,259.1,1054.8,290.6z M230.1,109.9L148,255.4l-5.4,9.5l-5.4-9.5L55.3,109.8l-6.2-11H1v12.3v276h54.3V213
		l61.1,98.6l12.5,20.2h27.7l12.5-20.2l61-98.6v174.1h54.3v-276V98.9h-48.1L230.1,109.9z M1034.3,257.9c2.3,8.6,3.6,17.7,3.6,27.1
		v24.7h-56.8h-94.6c8.9,17,26.8,28.7,47.3,28.7c14.3,0,27.2-5.6,36.8-14.8l36.9,34.9c-18.8,18.9-44.9,30.6-73.7,30.6
		c-57.5,0-104.1-46.6-104.1-104.1c0-57.5,46.6-104,104.1-104C981.8,181,1022.3,213.6,1034.3,257.9z M979.7,257.9
		c-9.3-15.7-26.4-26.2-45.9-26.2c-19.5,0-36.6,10.5-46,26.2H979.7z"/>
</g>
</svg>
